<svg width="143" height="46" viewBox="0 0 143 46" fill="none" xmlns="http://www.w3.org/2000/svg">
<path d="M65.425 0.3125L54.175 46H39.5813L35.2063 26.0938C35.1229 25.7188 34.9875 25.0833 34.8 24.1875C34.6333 23.2917 34.4354 22.2708 34.2063 21.125C33.9979 19.9792 33.8 18.8542 33.6125 17.75C33.4458 16.625 33.3208 15.6771 33.2375 14.9062C33.1542 15.6771 33.0188 16.625 32.8313 17.75C32.6438 18.8542 32.4354 19.9792 32.2063 21.125C31.9979 22.2708 31.7896 23.2917 31.5813 24.1875C31.3938 25.0833 31.2583 25.7188 31.175 26.0938L26.7688 46H12.175L0.862503 0.3125H12.7688L17.7375 23.2188C17.8625 23.7812 18.0292 24.5833 18.2375 25.625C18.4667 26.6458 18.6958 27.7708 18.925 29C19.175 30.2083 19.4042 31.375 19.6125 32.5C19.8208 33.625 19.9667 34.5625 20.05 35.3125C20.2167 34.0208 20.4354 32.5521 20.7063 30.9062C20.9979 29.2604 21.3104 27.5938 21.6438 25.9062C21.9979 24.1979 22.3313 22.6146 22.6438 21.1562C22.9563 19.6979 23.2271 18.5104 23.4563 17.5938L27.4875 0.3125H38.925L42.8313 17.5938C43.0396 18.4896 43.3 19.6771 43.6125 21.1562C43.9458 22.6146 44.2792 24.1979 44.6125 25.9062C44.9667 27.6146 45.2896 29.3021 45.5813 30.9688C45.8729 32.6146 46.0917 34.0625 46.2375 35.3125C46.3625 34.2708 46.5708 32.9583 46.8625 31.375C47.1542 29.7708 47.4458 28.2188 47.7375 26.7188C48.05 25.1979 48.2896 24.0521 48.4563 23.2812L53.5188 0.3125H65.425ZM94.6875 46H82.3438V10.4062H71.1875V0.3125H105.812V10.4062H94.6875V46ZM127.7 46H115.544V0.3125H142.544V10.2188H127.7V18.9375H141.388V28.8438H127.7V46Z" fill="#FFECDE"/>
</svg>
